<?xml version="1.0" standalone="no"?>
<!DOCTYPE svg PUBLIC "-//W3C//DTD SVG 20010904//EN"
 "http://www.w3.org/TR/2001/REC-SVG-20010904/DTD/svg10.dtd">
<svg version="1.0" xmlns="http://www.w3.org/2000/svg"
 width="700.000000pt" height="700.000000pt" viewBox="0 0 700.000000 700.000000"
 preserveAspectRatio="xMidYMid meet">
<metadata>
Created by potrace 1.14, written by Peter Selinger 2001-2017
</metadata>
<g transform="translate(0.000000,700.000000) scale(0.100000,-0.100000)"
fill="#000000" stroke="none">
<path d="M3131 6984 c-805 -87 -1535 -437 -2106 -1009 -576 -576 -924 -1306
-1010 -2119 -19 -188 -19 -524 0 -712 85 -809 434 -1542 1005 -2115 579 -580
1308 -928 2124 -1014 187 -19 524 -19 714 0 804 83 1543 436 2117 1010 553
552 889 1233 1000 2026 25 177 31 607 11 797 -88 824 -432 1549 -1011 2127
-574 575 -1312 927 -2113 1009 -186 19 -555 19 -731 0z m541 -554 c735 -48
1390 -342 1903 -855 715 -714 1008 -1728 788 -2725 -32 -147 -117 -403 -181
-547 -292 -652 -826 -1188 -1476 -1480 -919 -414 -1992 -325 -2831 233 -1103
733 -1578 2114 -1160 3369 60 179 136 356 215 496 494 879 1387 1445 2380
1509 169 10 201 11 362 0z"/>
<path d="M2930 5793 c-44 -23 -80 -76 -80 -118 0 -18 10 -47 23 -66 44 -66 37
-65 627 -82 501 -15 537 -15 570 1 43 21 80 75 80 117 0 18 -10 47 -23 66 -43
65 -48 66 -512 78 -231 6 -472 14 -535 17 -99 4 -120 3 -150 -13z"/>
<path d="M4623 5520 c-62 -37 -84 -111 -52 -172 15 -29 705 -776 746 -808 18
-14 41 -20 76 -20 44 0 53 4 88 39 33 32 39 45 39 79 0 22 -4 51 -9 64 -13 33
-727 800 -764 821 -41 22 -84 22 -124 -3z"/>
<path d="M2283 5497 c-20 -11 -516 -466 -730 -670 -117 -112 -131 -160 -67
-236 37 -44 92 -57 143 -34 46 21 805 723 827 764 55 107 -69 234 -173 176z"/>
<path d="M2219 4391 l-29 -29 0 -862 0 -862 29 -29 29 -29 1252 0 1252 0 29
29 29 29 0 862 0 862 -29 29 -29 29 -1252 0 -1252 0 -29 -29z m1019 -229 c36
-21 56 -76 42 -118 -23 -69 -24 -69 -399 -65 -377 3 -391 6 -417 66 -16 40 -7
92 22 115 26 23 73 25 402 20 246 -4 333 -8 350 -18z m1250 -18 c44 -18 68
-72 52 -120 -21 -63 -24 -64 -335 -64 -154 0 -379 3 -500 7 l-220 6 -27 28
c-40 40 -39 99 2 141 l30 30 483 -7 c367 -6 490 -11 515 -21z m-1112 -490 c78
-11 113 -112 59 -167 -14 -13 -36 -26 -48 -29 -12 -2 -218 -1 -458 3 -478 7
-473 6 -499 69 -21 50 8 114 60 133 17 6 840 -2 886 -9z m850 -11 l289 -6 33
-33 c48 -48 38 -121 -22 -153 -38 -21 -753 -8 -795 13 -59 31 -64 114 -9 161
35 29 33 29 504 18z m-1446 -508 c59 -31 69 -107 21 -156 l-29 -29 -140 0
c-135 0 -142 1 -170 25 -36 31 -47 66 -32 111 18 54 47 63 193 64 95 0 135 -4
157 -15z m1222 -5 c335 -5 513 -12 527 -19 26 -14 51 -62 51 -97 0 -16 -13
-39 -35 -61 l-35 -35 -293 6 c-160 3 -473 9 -695 12 l-404 7 -28 24 c-51 43
-49 112 4 155 25 21 130 22 908 8z"/>
<path d="M1280 4132 c-73 -36 -71 -21 -88 -627 -15 -506 -15 -547 1 -579 45
-95 181 -98 228 -5 16 30 20 101 35 576 16 531 16 544 -3 579 -21 40 -73 74
-113 74 -14 0 -41 -8 -60 -18z"/>
<path d="M5630 4132 c-69 -38 -67 -27 -86 -634 l-17 -546 22 -35 c54 -88 181
-85 227 5 14 26 19 100 30 452 7 232 13 482 14 557 0 125 -2 139 -22 164 -23
30 -74 55 -110 55 -13 0 -39 -8 -58 -18z"/>
<path d="M1519 2441 c-33 -33 -39 -45 -39 -82 0 -26 8 -56 19 -74 36 -56 726
-790 762 -809 49 -27 103 -15 146 31 28 29 33 42 33 81 -1 26 -6 57 -13 68
-23 41 -741 806 -765 815 -13 5 -42 9 -64 9 -34 0 -47 -6 -79 -39z"/>
<path d="M5369 2442 c-45 -21 -805 -724 -825 -763 -58 -113 74 -237 181 -170
29 18 758 693 800 740 31 35 28 121 -5 156 -25 27 -77 55 -102 55 -7 0 -29 -8
-49 -18z"/>
<path d="M2919 1465 c-82 -45 -80 -178 3 -221 46 -24 1096 -55 1146 -35 67 28
93 111 58 179 -32 61 -35 62 -519 77 -561 18 -654 18 -688 0z"/>
</g>
</svg>
